<?xml version="1.0" encoding="UTF-8"?>
<svg id="Calque_1" data-name="Calque 1" xmlns="http://www.w3.org/2000/svg" viewBox="0 0 595.28 841.89">
  <defs>
    <style>
      .cls-1 {
        fill: #e86b27;
      }
    </style>
  </defs>
  <path class="cls-1" d="M449.34,224.82c-27.24-12.33-58.05-14.36-86.22-3.97-19.34,7.16-36.73,19.77-49.96,35.76-8.33,10.04-13.31,19.45-15.52,30.7-2.22-11.24-7.2-20.66-15.52-30.7-13.23-15.99-30.62-28.6-49.96-35.76-28.17-10.39-58.99-8.37-86.22,3.97-66.38,30-81.36,110.58-81.36,153.65s9.57,78.98,28.79,112.45c19.14,33.42,46.22,61.16,81.2,83.23,0,0,64.47,36.89,123.07,53.58,58.6-16.69,123.07-53.58,123.07-53.58,34.98-22.06,62.06-49.8,81.2-83.23,19.22-33.46,28.79-70.93,28.79-112.45s-14.98-123.65-81.36-153.65ZM412.81,483.91c-11.13,21.52-26.57,40.58-46.3,57.2-19.69,16.61-42.53,29.57-68.48,38.91l-.39.14-.39-.14c-25.95-9.34-48.79-22.29-68.48-38.91-19.73-16.61-35.17-35.68-46.3-57.2-11.17-21.52-16.73-44.47-16.73-68.87s5.56-45.91,16.73-64.59c11.01-18.4,29.8-37.97,53.19-42.64,27.9-5.6,51.36,3.03,61.98,14.98,10.62-11.95,34.08-20.58,61.98-14.98,23.38,4.67,42.18,24.24,53.19,42.64,11.17,18.68,16.73,40.19,16.73,64.59s-5.56,47.35-16.73,68.87Z"/>
</svg>