<?xml version="1.0" encoding="UTF-8"?>
<svg id="Calque_1" data-name="Calque 1" xmlns="http://www.w3.org/2000/svg" viewBox="0 0 841.89 1190.55">
  <defs>
    <style>
      .cls-1 {
        fill: #e86b27;
      }
    </style>
  </defs>
  <path class="cls-1" d="M173.96,259.2c-.06.04-.12.08-.18.12l.65.07c-.16-.07-.31-.13-.47-.19ZM110.41,259.28h.03s-.01,0-.01-.01c-.01,0-.02.01-.02.01Z"/>
  <path class="cls-1" d="M651.19,776.08c-29.09-26.45-62.73-47.98-99.66-63.22l-2.64-.28c.24-.16.49-.33.73-.49,35.96-23.2,63.87-52.01,83.7-86.58,20.07-34.94,30.07-74.07,30.07-117.42s-10.16-84.75-30.47-119.45c-20.31-34.66-48.76-61.59-85.32-80.85-36.57-19.22-79.23-28.85-127.98-28.85s-90.6,9.63-127.17,28.85c-36.57,19.26-65.01,46.2-85.32,80.85-20.31,34.7-30.47,74.51-30.47,119.45s10.04,82.48,30.11,117.42c19.99,34.94,48.23,63.83,84.75,86.87,0,.04.04.04.04.04h-.12c-38.15,15.6-72.81,37.87-102.59,65.37-39.57,36.53-70.53,82.27-89.43,133.83h154.51c18.36-26,42.66-47.54,70.94-62.61,28.64-15.32,61.35-23.97,96.09-23.97s67.93,8.82,96.74,24.34c27.99,15.03,52.05,36.44,70.29,62.24h154.51c-19.18-52.37-50.83-98.77-91.29-135.54ZM419.6,718.55c-19.54-7.03-37.42-16.05-53.55-27.1-6.26-4.18-12.19-8.74-17.92-13.53-20.6-17.35-36.73-37.22-48.39-59.73-11.62-22.47-17.47-46.44-17.47-71.91s5.85-47.94,17.47-67.45c11.66-19.5,27.79-34.78,48.39-45.91,20.56-11.09,44.41-16.66,71.47-16.66s51.07,5.57,71.91,16.66c20.88,11.13,37.14,26.41,48.76,45.91,11.66,19.5,17.47,42.01,17.47,67.45s-5.81,49.45-17.47,71.91c-11.62,22.51-27.87,42.38-48.76,59.73-5.65,4.67-11.54,9.1-17.63,13.2-16.41,11.21-34.54,20.31-54.28,27.42Z"/>
</svg>